Coordinates
version=1
nRows=30
nColumns=30
inDegrees=yes

Units are S.I. units (second, meters, Newtons, ...)
Angles are in degrees.

endheader
time	floatyaw	floatroll	floatpitch	floatx	floaty	floatz	pro_sup_l	deviation_l	flexion_l	cmc_flexion_l	cmc_abduction_l	mp_flexion_l	ip_flexion_l	2mcp_flexion_l	2mcp_abduction_l	2pm_flexion_l	2md_flexion_l	3mcp_flexion_l	3mcp_abduction_l	3pm_flexion_l	3md_flexion_l	4mcp_flexion_l	4mcp_abduction_l	4pm_flexion_l	4md_flexion_l	5mcp_flexion_l	5mcp_abduction_l	5pm_flexion_l	5md_flexion_l
-1.495000	-1.071121	-4.178315	93.848517	-0.009476	-0.265546	-0.003092	89.099656	0.668574	-1.916067	24.153571	3.602333	-17.910857	-28.437123	19.794467	5.677089	30.803775	20.450402	9.677242	4.467929	33.631385	21.520650	-1.181598	-3.997166	50.296735	32.847403	-20.490471	-7.696813	60.177563	49.560936
-1.485000	-1.071121	-4.178315	93.848517	-0.009467	-0.265550	-0.003120	89.097434	0.676020	-1.914949	24.180382	3.595895	-17.919916	-28.475839	19.792625	5.680715	30.791660	20.467608	9.662597	4.466143	33.629166	21.539761	-1.203200	-3.999952	50.324470	32.862316	-20.491760	-7.683320	60.236103	49.548902
-1.475000	-1.071121	-4.178315	93.848517	-0.009446	-0.265545	-0.003162	89.103869	0.688997	-1.917321	24.213889	3.594580	-17.923153	-28.527242	19.796485	5.691125	30.778695	20.504134	9.656677	4.465390	33.628149	21.577926	-1.205476	-4.003290	50.350308	32.886007	-20.480079	-7.677282	60.317689	49.528079
-1.465000	-1.071121	-4.178315	93.848517	-0.009417	-0.265530	-0.003214	89.118169	0.706395	-1.921881	24.242857	3.596645	-17.916643	-28.572056	19.804720	5.705426	30.764408	20.551098	9.660383	4.466213	33.627480	21.624557	-1.188881	-4.005347	50.368271	32.912811	-20.460439	-7.682496	60.406268	49.507554
-1.455000	-1.071121	-4.178315	93.848517	-0.009387	-0.265510	-0.003270	89.137188	0.725840	-1.926815	24.256089	3.600210	-17.898917	-28.591048	19.815866	5.719063	30.748191	20.597422	9.673466	4.468948	33.624993	21.666178	-1.158710	-4.004285	50.375088	32.935383	-20.439817	-7.699060	60.487138	49.495431
-1.445000	-1.071121	-4.178315	93.848517	-0.009363	-0.265487	-0.003322	89.156697	0.744667	-1.930659	24.247046	3.603616	-17.871213	-28.572687	19.827930	5.728077	30.730840	20.634835	9.693653	4.473334	33.619549	21.692707	-1.122810	-3.999357	50.371646	32.947013	-20.425554	-7.723688	60.553716	49.493764
-1.435000	-1.071121	-4.178315	93.848517	-0.009346	-0.265466	-0.003365	89.173042	0.760782	-1.932903	24.217405	3.605746	-17.837585	-28.518980	19.838562	5.731235	30.715297	20.660240	9.717297	4.478408	33.612440	21.700792	-1.088546	-3.991237	50.362430	32.943958	-20.423509	-7.751809	60.608691	49.497976
-1.425000	-1.071121	-4.178315	93.848517	-0.009336	-0.265450	-0.003399	89.184302	0.773047	-1.933934	24.177597	3.606125	-17.804673	-28.446281	19.845619	5.730578	30.706306	20.674774	9.741041	4.482815	33.606881	21.692889	-1.060882	-3.981647	50.353617	32.926750	-20.436607	-7.779787	60.659476	49.500826
-1.415000	-1.071121	-4.178315	93.848517	-0.009330	-0.265441	-0.003424	89.190722	0.781271	-1.934494	24.143439	3.604383	-17.780303	-28.379690	19.847721	5.729910	30.709168	20.680995	9.763086	4.485332	33.606212	21.673830	-1.042300	-3.972706	50.350981	32.899929	-20.463795	-7.805851	60.711282	49.497646
-1.405000	-1.071121	-4.178315	93.848517	-0.009324	-0.265438	-0.003441	89.194521	0.786012	-1.935182	24.129748	3.599352	-17.770632	-28.342869	19.844649	5.732229	30.727816	20.680333	9.783064	4.485334	33.612167	21.647832	-1.033796	-3.966281	50.358325	32.870316	-20.499610	-7.829513	60.762194	49.489131
-1.395000	-1.071121	-4.178315	93.848517	-0.009316	-0.265439	-0.003449	89.199005	0.788248	-1.936272	24.143664	3.588860	-17.777048	-28.347858	19.837520	5.737825	30.762664	20.672400	9.800731	4.483001	33.624170	21.617734	-1.035781	-3.963512	50.376627	32.844530	-20.535302	-7.850314	60.803059	49.480137
-1.385000	-1.071121	-4.178315	93.848517	-0.009309	-0.265441	-0.003449	89.206911	0.788825	-1.937807	24.181149	3.571145	-17.794990	-28.389964	19.828649	5.744257	30.809191	20.656398	9.814747	4.479226	33.639645	21.586225	-1.048250	-3.964622	50.403995	32.826812	-20.562075	-7.867007	60.822075	49.475716
-1.375000	-1.071121	-4.178315	93.848517	-0.009303	-0.265442	-0.003440	89.218455	0.787781	-1.939778	24.228794	3.547724	-17.816011	-28.450602	19.821173	5.748156	30.858466	20.633518	9.822809	4.475279	33.654920	21.557490	-1.070263	-3.969052	50.436407	32.818234	-20.575157	-7.877679	60.811294	49.477254
-1.365000	-1.071121	-4.178315	93.848517	-0.009303	-0.265443	-0.003421	89.230304	0.783978	-1.942336	24.270227	3.525810	-17.832145	-28.506790	19.818554	5.747593	30.900028	20.608354	9.823224	4.472406	33.666491	21.537533	-1.099193	-3.975850	50.469012	32.817660	-20.575908	-7.880535	60.771282	49.481375
-1.355000	-1.071121	-4.178315	93.848517	-0.009308	-0.265447	-0.003394	89.236692	0.775601	-1.945999	24.293684	3.517447	-17.839790	-28.542015	19.823970	5.743452	30.925914	20.587808	9.816678	4.471465	33.672424	21.532332	-1.130405	-3.984041	50.497506	32.823534	-20.570236	-7.874755	60.711299	49.482319
-1.345000	-1.071121	-4.178315	93.848517	-0.009316	-0.265457	-0.003360	89.232605	0.761492	-1.951719	24.296606	3.534189	-17.840596	-28.552331	19.839463	5.738934	30.933569	20.577793	9.806723	4.472686	33.673157	21.544604	-1.157929	-3.992774	50.519109	32.834946	-20.564516	-7.860994	60.645121	49.476004
-1.335000	-1.071121	-4.178315	93.848517	-0.009325	-0.265477	-0.003323	89.217210	0.742467	-1.960651	24.285067	3.579705	-17.839077	-28.544936	19.864956	5.737605	30.925888	20.579934	9.798565	4.475566	33.670851	21.571254	-1.176179	-4.001160	50.532842	32.851212	-20.561951	-7.841421	60.585138	49.462831
-1.325000	-1.071121	-4.178315	93.848517	-0.009332	-0.265505	-0.003287	89.195233	0.721592	-1.973693	24.269104	3.645250	-17.838978	-28.531529	19.897667	5.741327	30.908655	20.590695	9.797058	4.479010	33.667373	21.603576	-1.182029	-4.008098	50.539177	32.870766	-20.561503	-7.819313	60.537955	49.447434
-1.315000	-1.071121	-4.178315	93.848517	-0.009337	-0.265542	-0.003255	89.175209	0.703116	-1.991022	24.257137	3.711776	-17.840999	-28.521278	19.932409	5.749369	30.887564	20.603481	9.805122	4.481763	33.662430	21.630483	-1.176167	-4.012444	50.539528	32.890738	-20.559356	-7.798354	60.503466	49.436071
-1.305000	-1.071121	-4.178315	93.848517	-0.009343	-0.265585	-0.003226	89.165565	0.690711	-2.011838	24.252655	3.758215	-17.843207	-28.517353	19.962759	5.759074	30.867101	20.612169	9.823089	4.482963	33.653745	21.643018	-1.163004	-4.013620	50.536208	32.907861	-20.551491	-7.781752	60.477318	49.433904
-1.295000	-1.071121	-4.178315	93.848517	-0.009352	-0.265629	-0.003201	89.170656	0.686054	-2.034335	24.254546	3.771473	-17.843533	-28.518228	19.982645	5.767472	30.851737	20.613782	9.848722	4.482527	33.639746	21.637688	-1.149109	-4.012299	50.532833	32.920018	-20.535805	-7.771337	60.455025	49.443805
-1.285000	-1.071121	-4.178315	93.848517	-0.009362	-0.265669	-0.003179	89.188749	0.688376	-2.055880	24.260057	3.752699	-17.842318	-28.522096	19.987919	5.772772	30.847571	20.608990	9.877561	4.481133	33.622898	21.617090	-1.140674	-4.010525	50.534173	32.927146	-20.512854	-7.766842	60.435240	49.466484
-1.275000	-1.071121	-4.178315	93.848517	-0.009371	-0.265701	-0.003162	89.212817	0.695024	-2.073428	24.267728	3.716418	-17.842777	-28.530618	19.977634	5.774912	30.861687	20.600643	9.903708	4.479778	33.610618	21.588069	-1.140947	-4.010936	50.544444	32.930871	-20.485341	-7.765805	60.420251	49.500615
-1.265000	-1.071121	-4.178315	93.848517	-0.009374	-0.265717	-0.003153	89.233604	0.702621	-2.084117	24.277885	3.682971	-17.848773	-28.548443	19.954875	5.775020	30.898100	20.591454	9.921265	4.479116	33.611976	21.558758	-1.148921	-4.015384	50.564545	32.933294	-20.457177	-7.764475	60.413415	49.542505
-1.255000	-1.071121	-4.178315	93.848517	-0.009369	-0.265716	-0.003152	89.243361	0.708214	-2.085937	24.290633	3.668390	-17.861623	-28.578527	19.926728	5.774282	30.952434	20.582219	9.926321	4.478909	33.631653	21.535951	-1.160125	-4.023776	50.590206	32.935941	-20.432741	-7.759458	60.415294	49.586207
-1.245000	-1.071121	-4.178315	93.848517	-0.009355	-0.265696	-0.003158	89.238560	0.709911	-2.078293	24.303775	3.677390	-17.878667	-28.617737	19.902752	5.773095	31.009860	20.571671	9.918704	4.477966	33.665272	21.523593	-1.169056	-4.033929	50.612777	32.939501	-20.416196	-7.749167	60.421325	49.624966
-1.235000	-1.071121	-4.178315	93.848517	-0.009340	-0.265662	-0.003166	89.220499	0.706923	-2.062355	24.313098	3.703207	-17.894870	-28.657527	19.891677	5.771042	31.049664	20.558276	9.902453	4.474739	33.699897	21.522614	-1.171641	-4.042547	50.622610	32.944080	-20.410495	-7.734147	60.423176	49.653349
-1.225000	-1.071121	-4.178315	93.848517	-0.009329	-0.265621	-0.003171	89.193878	0.699314	-2.040999	24.314910	3.733598	-17.906049	-28.689580	19.897476	5.767469	31.055093	20.542852	9.884352	4.468303	33.720108	21.531883	-1.166277	-4.046730	50.613233	32.949323	-20.416311	-7.716328	60.413350	49.668431
-1.215000	-1.071121	-4.178315	93.848517	-0.009327	-0.265580	-0.003168	89.164302	0.687813	-2.018171	24.308548	3.758595	-17.911181	-28.711485	19.917151	5.761963	31.022434	20.529845	9.870916	4.459070	33.716063	21.549557	-1.153304	-4.045167	50.584000	32.954074	-20.431681	-7.698003	60.389910	49.669405
-1.205000	-1.071121	-4.178315	93.848517	-0.009335	-0.265548	-0.003156	89.136048	0.673740	-1.997673	24.296870	3.775040	-17.912488	-28.727709	19.941937	5.754325	30.963038	20.525700	9.865224	4.448722	33.688536	21.573857	-1.134017	-4.038449	50.539860	32.955958	-20.452967	-7.681254	60.357748	49.656682
